<mxfile host="app.diagrams.net" modified="2024-06-24T22:47:30.093Z" agent="Mozilla/5.0 (Windows NT 10.0; Win64; x64) AppleWebKit/537.36 (KHTML, like Gecko) Chrome/125.0.0.0 Safari/537.36" etag="wHLL_Bir4QerXEpdQUEB" version="24.6.2" type="device" pages="2">
  <diagram name="Page-1" id="7e0a89b8-554c-2b80-1dc8-d5c74ca68de4">
    <mxGraphModel dx="1434" dy="772" grid="1" gridSize="10" guides="1" tooltips="1" connect="1" arrows="1" fold="1" page="1" pageScale="1" pageWidth="1100" pageHeight="850" background="none" math="0" shadow="0">
      <root>
        <mxCell id="0" />
        <mxCell id="1" parent="0" />
        <mxCell id="2UH9CxJgwMDhKxXunSfZ-1" value="" style="pointerEvents=1;fillColor=strokeColor;verticalLabelPosition=bottom;shadow=0;dashed=0;align=center;html=1;verticalAlign=top;shape=mxgraph.electrical.diodes.tunnel_diode_2;" vertex="1" parent="1">
          <mxGeometry x="520" y="150" width="100" height="80" as="geometry" />
        </mxCell>
        <mxCell id="2UH9CxJgwMDhKxXunSfZ-5" value="" style="pointerEvents=1;verticalLabelPosition=bottom;shadow=0;dashed=0;align=center;html=1;verticalAlign=top;shape=mxgraph.electrical.signal_sources.protective_earth;" vertex="1" parent="1">
          <mxGeometry x="238" y="380" width="25" height="20" as="geometry" />
        </mxCell>
        <mxCell id="2UH9CxJgwMDhKxXunSfZ-7" style="edgeStyle=orthogonalEdgeStyle;rounded=0;orthogonalLoop=1;jettySize=auto;html=1;exitX=1;exitY=0.5;exitDx=0;exitDy=0;exitPerimeter=0;entryX=0.5;entryY=0;entryDx=0;entryDy=0;entryPerimeter=0;endArrow=none;endFill=0;" edge="1" parent="1" source="2UH9CxJgwMDhKxXunSfZ-1" target="2UH9CxJgwMDhKxXunSfZ-5">
          <mxGeometry relative="1" as="geometry" />
        </mxCell>
        <mxCell id="2UH9CxJgwMDhKxXunSfZ-8" value="V&lt;sub&gt;dd&lt;/sub&gt;" style="verticalLabelPosition=top;verticalAlign=bottom;shape=mxgraph.electrical.signal_sources.vdd;shadow=0;dashed=0;align=center;strokeWidth=1;fontSize=24;html=1;flipV=1;" vertex="1" parent="1">
          <mxGeometry x="220.5" y="130" width="60" height="40" as="geometry" />
        </mxCell>
        <mxCell id="2UH9CxJgwMDhKxXunSfZ-9" style="edgeStyle=orthogonalEdgeStyle;rounded=0;orthogonalLoop=1;jettySize=auto;html=1;exitX=0.5;exitY=0;exitDx=0;exitDy=0;exitPerimeter=0;entryX=0;entryY=0.5;entryDx=0;entryDy=0;entryPerimeter=0;endArrow=none;endFill=0;" edge="1" parent="1" source="2UH9CxJgwMDhKxXunSfZ-8" target="2UH9CxJgwMDhKxXunSfZ-1">
          <mxGeometry relative="1" as="geometry" />
        </mxCell>
        <mxCell id="2UH9CxJgwMDhKxXunSfZ-10" value="LED" style="text;html=1;align=center;verticalAlign=middle;whiteSpace=wrap;rounded=0;" vertex="1" parent="1">
          <mxGeometry x="540" y="110" width="60" height="30" as="geometry" />
        </mxCell>
        <mxCell id="2UH9CxJgwMDhKxXunSfZ-11" value="" style="pointerEvents=1;fillColor=strokeColor;verticalLabelPosition=bottom;shadow=0;dashed=0;align=center;html=1;verticalAlign=top;shape=mxgraph.electrical.diodes.tunnel_diode_2;" vertex="1" parent="1">
          <mxGeometry x="839.5" y="530" width="100" height="80" as="geometry" />
        </mxCell>
        <mxCell id="2UH9CxJgwMDhKxXunSfZ-12" value="" style="pointerEvents=1;verticalLabelPosition=bottom;shadow=0;dashed=0;align=center;html=1;verticalAlign=top;shape=mxgraph.electrical.signal_sources.protective_earth;" vertex="1" parent="1">
          <mxGeometry x="557.5" y="760" width="25" height="20" as="geometry" />
        </mxCell>
        <mxCell id="2UH9CxJgwMDhKxXunSfZ-14" value="V&lt;sub&gt;dd&lt;/sub&gt;" style="verticalLabelPosition=top;verticalAlign=bottom;shape=mxgraph.electrical.signal_sources.vdd;shadow=0;dashed=0;align=center;strokeWidth=1;fontSize=24;html=1;flipV=1;" vertex="1" parent="1">
          <mxGeometry x="540" y="510" width="60" height="40" as="geometry" />
        </mxCell>
        <mxCell id="2UH9CxJgwMDhKxXunSfZ-15" style="edgeStyle=orthogonalEdgeStyle;rounded=0;orthogonalLoop=1;jettySize=auto;html=1;exitX=0.5;exitY=0;exitDx=0;exitDy=0;exitPerimeter=0;entryX=0;entryY=0.5;entryDx=0;entryDy=0;entryPerimeter=0;endArrow=none;endFill=0;" edge="1" parent="1" source="2UH9CxJgwMDhKxXunSfZ-14" target="2UH9CxJgwMDhKxXunSfZ-11">
          <mxGeometry relative="1" as="geometry" />
        </mxCell>
        <mxCell id="2UH9CxJgwMDhKxXunSfZ-16" value="LED" style="text;html=1;align=center;verticalAlign=middle;whiteSpace=wrap;rounded=0;" vertex="1" parent="1">
          <mxGeometry x="859.5" y="490" width="60" height="30" as="geometry" />
        </mxCell>
        <mxCell id="2UH9CxJgwMDhKxXunSfZ-17" value="" style="pointerEvents=1;verticalLabelPosition=bottom;shadow=0;dashed=0;align=center;html=1;verticalAlign=top;shape=mxgraph.electrical.resistors.resistor_2;" vertex="1" parent="1">
          <mxGeometry x="790" y="700" width="100" height="20" as="geometry" />
        </mxCell>
        <mxCell id="2UH9CxJgwMDhKxXunSfZ-18" style="edgeStyle=orthogonalEdgeStyle;rounded=0;orthogonalLoop=1;jettySize=auto;html=1;exitX=1;exitY=0.5;exitDx=0;exitDy=0;exitPerimeter=0;entryX=1;entryY=0.5;entryDx=0;entryDy=0;entryPerimeter=0;endArrow=none;endFill=0;" edge="1" parent="1" source="2UH9CxJgwMDhKxXunSfZ-11" target="2UH9CxJgwMDhKxXunSfZ-17">
          <mxGeometry relative="1" as="geometry" />
        </mxCell>
        <mxCell id="2UH9CxJgwMDhKxXunSfZ-19" style="edgeStyle=orthogonalEdgeStyle;rounded=0;orthogonalLoop=1;jettySize=auto;html=1;exitX=0;exitY=0.5;exitDx=0;exitDy=0;exitPerimeter=0;entryX=0.5;entryY=0;entryDx=0;entryDy=0;entryPerimeter=0;endArrow=none;endFill=0;" edge="1" parent="1" source="2UH9CxJgwMDhKxXunSfZ-17" target="2UH9CxJgwMDhKxXunSfZ-12">
          <mxGeometry relative="1" as="geometry" />
        </mxCell>
        <mxCell id="2UH9CxJgwMDhKxXunSfZ-20" value="1K" style="text;html=1;align=center;verticalAlign=middle;whiteSpace=wrap;rounded=0;" vertex="1" parent="1">
          <mxGeometry x="810" y="660" width="60" height="30" as="geometry" />
        </mxCell>
      </root>
    </mxGraphModel>
  </diagram>
  <diagram id="N-gL1tUXdqt20H07ERUX" name="ページ2">
    <mxGraphModel dx="1434" dy="772" grid="1" gridSize="10" guides="1" tooltips="1" connect="1" arrows="1" fold="1" page="1" pageScale="1" pageWidth="827" pageHeight="1169" math="0" shadow="0">
      <root>
        <mxCell id="0" />
        <mxCell id="1" parent="0" />
        <mxCell id="PPvfEertGlhmqVyqW_AI-15" value="" style="whiteSpace=wrap;html=1;fillColor=none;shadow=0;" vertex="1" parent="1">
          <mxGeometry x="60" y="120" width="250" height="260" as="geometry" />
        </mxCell>
        <mxCell id="PPvfEertGlhmqVyqW_AI-1" value="" style="pointerEvents=1;fillColor=strokeColor;verticalLabelPosition=bottom;shadow=0;dashed=0;align=center;html=1;verticalAlign=top;shape=mxgraph.electrical.diodes.tunnel_diode_2;" vertex="1" parent="1">
          <mxGeometry x="529.5" y="150" width="100" height="80" as="geometry" />
        </mxCell>
        <mxCell id="PPvfEertGlhmqVyqW_AI-4" style="edgeStyle=orthogonalEdgeStyle;rounded=0;orthogonalLoop=1;jettySize=auto;html=1;exitX=1;exitY=0.5;exitDx=0;exitDy=0;exitPerimeter=0;entryX=0;entryY=0.5;entryDx=0;entryDy=0;entryPerimeter=0;endArrow=none;endFill=0;" edge="1" parent="1" source="PPvfEertGlhmqVyqW_AI-10" target="PPvfEertGlhmqVyqW_AI-1">
          <mxGeometry relative="1" as="geometry">
            <mxPoint x="260" y="170" as="sourcePoint" />
          </mxGeometry>
        </mxCell>
        <mxCell id="PPvfEertGlhmqVyqW_AI-5" value="LED" style="text;html=1;align=center;verticalAlign=middle;whiteSpace=wrap;rounded=0;" vertex="1" parent="1">
          <mxGeometry x="549.5" y="110" width="60" height="30" as="geometry" />
        </mxCell>
        <mxCell id="PPvfEertGlhmqVyqW_AI-12" style="edgeStyle=orthogonalEdgeStyle;rounded=0;orthogonalLoop=1;jettySize=auto;html=1;exitX=0;exitY=0.5;exitDx=0;exitDy=0;exitPerimeter=0;endArrow=none;endFill=0;" edge="1" parent="1" source="PPvfEertGlhmqVyqW_AI-6" target="PPvfEertGlhmqVyqW_AI-11">
          <mxGeometry relative="1" as="geometry" />
        </mxCell>
        <mxCell id="PPvfEertGlhmqVyqW_AI-6" value="" style="pointerEvents=1;verticalLabelPosition=bottom;shadow=0;dashed=0;align=center;html=1;verticalAlign=top;shape=mxgraph.electrical.resistors.resistor_2;" vertex="1" parent="1">
          <mxGeometry x="480" y="320" width="100" height="20" as="geometry" />
        </mxCell>
        <mxCell id="PPvfEertGlhmqVyqW_AI-7" style="edgeStyle=orthogonalEdgeStyle;rounded=0;orthogonalLoop=1;jettySize=auto;html=1;exitX=1;exitY=0.5;exitDx=0;exitDy=0;exitPerimeter=0;entryX=1;entryY=0.5;entryDx=0;entryDy=0;entryPerimeter=0;endArrow=none;endFill=0;" edge="1" parent="1" source="PPvfEertGlhmqVyqW_AI-1" target="PPvfEertGlhmqVyqW_AI-6">
          <mxGeometry relative="1" as="geometry" />
        </mxCell>
        <mxCell id="PPvfEertGlhmqVyqW_AI-9" value="1K" style="text;html=1;align=center;verticalAlign=middle;whiteSpace=wrap;rounded=0;" vertex="1" parent="1">
          <mxGeometry x="500" y="280" width="60" height="30" as="geometry" />
        </mxCell>
        <mxCell id="PPvfEertGlhmqVyqW_AI-10" value="" style="shape=mxgraph.arrows2.arrow;verticalLabelPosition=bottom;shadow=0;dashed=0;align=center;html=1;verticalAlign=top;strokeWidth=1;dy=0;dx=10;notch=0;" vertex="1" parent="1">
          <mxGeometry x="247.5" y="175" width="100" height="30" as="geometry" />
        </mxCell>
        <mxCell id="PPvfEertGlhmqVyqW_AI-11" value="" style="shape=mxgraph.arrows2.arrow;verticalLabelPosition=bottom;shadow=0;dashed=0;align=center;html=1;verticalAlign=top;strokeWidth=1;dy=0;dx=10;notch=0;" vertex="1" parent="1">
          <mxGeometry x="247.5" y="315" width="100" height="30" as="geometry" />
        </mxCell>
        <mxCell id="PPvfEertGlhmqVyqW_AI-13" value="P15" style="text;html=1;align=center;verticalAlign=middle;whiteSpace=wrap;rounded=0;" vertex="1" parent="1">
          <mxGeometry x="310" y="145" width="60" height="30" as="geometry" />
        </mxCell>
        <mxCell id="PPvfEertGlhmqVyqW_AI-14" value="GND" style="text;html=1;align=center;verticalAlign=middle;whiteSpace=wrap;rounded=0;" vertex="1" parent="1">
          <mxGeometry x="310" y="290" width="60" height="30" as="geometry" />
        </mxCell>
        <mxCell id="PPvfEertGlhmqVyqW_AI-16" value="RBoard" style="text;html=1;align=center;verticalAlign=middle;whiteSpace=wrap;rounded=0;" vertex="1" parent="1">
          <mxGeometry x="155" y="380" width="60" height="30" as="geometry" />
        </mxCell>
      </root>
    </mxGraphModel>
  </diagram>
</mxfile>
